<?xml version="1.0" encoding="utf-8"?>
<!-- Generator: Adobe Illustrator 26.5.0, SVG Export Plug-In . SVG Version: 6.00 Build 0)  -->
<svg version="1.1" id="Icon" xmlns="http://www.w3.org/2000/svg" xmlns:xlink="http://www.w3.org/1999/xlink" x="0px" y="0px"
	 viewBox="0 0 64 64" style="enable-background:new 0 0 64 64;" xml:space="preserve">
<style type="text/css">
	.st0{fill:#FF1A58;}
</style>
<path id="Light" class="st0" d="M56,24C56,10.8,45.2,0,32,0S8,10.8,8,24c0,8.9,4.8,16.6,12,20.8V54h20v6H20v4h20c2.2,0,4-1.8,4-4
	V44.8C51.2,40.6,56,32.9,56,24z M40,42.3V50H24v-7.7C16.9,39.2,12,32.2,12,24c0-11,9-20,20-20s20,9,20,20C52,32.2,47.1,39.2,40,42.3
	z"/>
</svg>
