<?xml version="1.0" encoding="utf-8"?>
<!-- Generator: Adobe Illustrator 27.2.0, SVG Export Plug-In . SVG Version: 6.00 Build 0)  -->
<svg version="1.1" id="Icon" xmlns="http://www.w3.org/2000/svg" xmlns:xlink="http://www.w3.org/1999/xlink" x="0px" y="0px"
	 viewBox="0 0 64 64" style="enable-background:new 0 0 64 64;" xml:space="preserve">
<path d="M2,40c-1.1,0-2,0.9-2,2v14c0,1.1,0.9,2,2,2h6.3c0.9,3.4,4,6,7.7,6s6.9-2.6,7.7-6h16.5c0.9,3.4,4,6,7.7,6
	c3.7,0,6.9-2.6,7.7-6H62c1.1,0,2-0.9,2-2V42c0-0.2,0-0.4-0.1-0.5l-4-14c-0.2-0.9-1-1.5-1.9-1.5H38c-1.1,0-2,0.9-2,2v12H2z M38,44
	c1.1,0,2-0.9,2-2V30h16.5L60,42.3V54h-4.3c-0.9-3.4-4-6-7.7-6c-3.7,0-6.9,2.6-7.7,6H23.7c-0.9-3.4-4-6-7.7-6s-6.9,2.6-7.7,6H4V44H38
	z M16,60c-2.2,0-4-1.8-4-4s1.8-4,4-4s4,1.8,4,4S18.2,60,16,60z M48,60c-2.2,0-4-1.8-4-4s1.8-4,4-4s4,1.8,4,4S50.2,60,48,60z"/>
<path d="M33.3,11.7H1.7c-1,0-1.7,0.8-1.7,1.7v17.9h4V15.7h27.1v19.6H4.4H4H0v2.3c0,1,0.8,1.7,1.7,1.7h31.6c1,0,1.7-0.8,1.7-1.7V13.4
	C35.1,12.4,34.3,11.7,33.3,11.7z"/>
</svg>
