<?xml version="1.0" encoding="utf-8"?>
<!-- Generator: Adobe Illustrator 27.2.0, SVG Export Plug-In . SVG Version: 6.00 Build 0)  -->
<svg version="1.1" id="Icon" xmlns="http://www.w3.org/2000/svg" xmlns:xlink="http://www.w3.org/1999/xlink" x="0px" y="0px"
	 viewBox="0 0 64 64" style="enable-background:new 0 0 64 64;" xml:space="preserve">
<path d="M32,24c5.5,0,10-4.5,10-10c0-5.5-4.5-10-10-10c-5.5,0-10,4.5-10,10C22,19.5,26.5,24,32,24z M32,8c3.3,0,6,2.7,6,6
	c0,3.3-2.7,6-6,6c-3.3,0-6-2.7-6-6C26,10.7,28.7,8,32,8z M50,60H22v-4h26c-0.6-13.4-7.6-24-16-24c-8.8,0-16,11.7-16,26v2h-4v-2
	c0-16.5,9-30,20-30s20,13.5,20,30C52,59.1,51.1,60,50,60z"/>
</svg>
