<?xml version="1.0" encoding="utf-8"?>
<!-- Generator: Adobe Illustrator 27.2.0, SVG Export Plug-In . SVG Version: 6.00 Build 0)  -->
<svg version="1.1" id="Icons" xmlns="http://www.w3.org/2000/svg" xmlns:xlink="http://www.w3.org/1999/xlink" x="0px" y="0px"
	 viewBox="0 0 64 64" style="enable-background:new 0 0 64 64;" xml:space="preserve">
<path d="M56,32C56,32,56,32,56,32C56,32,56,32,56,32L56,32z M60,22.2V2c0-0.6-0.3-1.2-0.7-1.6c-0.5-0.4-1.1-0.5-1.7-0.4L39.3,4
	L21.4,0c-0.1,0-0.3,0-0.4,0c-0.1,0-0.3,0-0.4,0l-19,4C0.7,4.2,0,5.1,0,6l0,56c0,0.6,0.3,1.2,0.7,1.6c0.5,0.4,1.1,0.5,1.7,0.4L21,60
	l17.9,4c0.1,0,0.3,0,0.4,0s0.3,0,0.4,0l18.7-4c0.9-0.2,1.6-1.1,1.6-2v-9c-1.2,0.8-2.6,1.5-4,2v5.4L39.7,60L21.4,56
	c-0.1,0-0.3,0-0.4,0s-0.3,0-0.4,0L4,59.5V8l17-4l18.2,4C39.5,8,39.8,8,40.1,8L56,4.5v14.9c-1.8-0.9-3.9-1.4-6-1.4c0,0,0,0,0,0
	s0,0,0,0c-1.4,0-2.7,0.2-3.9,0.6c-0.1,0-0.2,0-0.2,0.1c-2.1,0.7-4,1.8-5.5,3.3c-0.1,0.1-0.1,0.1-0.2,0.2c-0.1,0.1-0.1,0.1-0.2,0.2
	c-1,1.1-1.9,2.3-2.6,3.7h-2.9V12c0-0.9-0.5-1.7-1.4-1.9C32.9,10,32.7,10,32.5,10c-0.7,0-1.3,0.3-1.7,0.9L17,32.9
	c-0.4,0.6-0.4,1.4-0.1,2c0.4,0.6,1,1,1.8,1H25v14c0,0.9,0.6,1.7,1.4,1.9c0.2,0,0.3,0.1,0.5,0.1c0.7,0,1.4-0.4,1.7-1l8.1-14.3
	C38.8,42.1,43.9,46,50,46c0,0,0,0,0,0s0,0,0,0c0.1,0,0.2,0,0.3,0c0.9,0,1.7-0.1,2.5-0.3c2.6-0.5,5-1.8,6.9-3.7
	c0.1-0.1,0.1-0.1,0.2-0.2c0.1-0.1,0.1-0.1,0.2-0.2c1.5-1.5,2.6-3.4,3.3-5.5c0-0.1,0-0.2,0.1-0.2c0.4-1.2,0.6-2.6,0.6-3.9
	c0,0,0,0,0,0s0,0,0,0C64,28.2,62.5,24.7,60,22.2z M29,42.5V34c0-1.1-1-2-2.1-2h-4.6l8.2-13.1V28c0,1.1,0.9,2,2,2H36L29,42.5z M50,42
	c-5.2,0-9.4-3.9-9.9-9c0-0.1,0-0.2,0-0.3c0-0.2,0-0.4,0-0.7c0-5.5,4.5-10,10-10c5.5,0,10,4.5,10,10C60,37.5,55.5,42,50,42z
	 M54.4,26.2L50,30.6l-4.4-4.4l-1.4,1.4l4.4,4.4l-4.4,4.4l1.4,1.4l4.4-4.4l4.4,4.4l1.4-1.4L51.4,32l4.4-4.4L54.4,26.2z"/>
</svg>
